# xmcd CD database file
#
# Track frame offsets:
#	150
#	17094
#	39816
#	57129
#	69350
#	90323
#	107115
#	124302
#	149912
#	165637
#	178117
#	202134
#
# Disc length: 2950 seconds
#
# Revision: 4
# Processed by: cddbd v1.5.1PL2 Copyright (c) Steve Scherf et al.
# Submitted via: Feurio! 1.68 - http://www.feurio.com
#
DISCID=a80b840c
DTITLE=Various Artist - Crucial Chicago Blues
DYEAR=2003
DGENRE=blues
TTITLE0=Luther Allison - Low Down And Dirty
TTITLE1=Koko Taylor - Ernestine
TTITLE2=Junior Wells - Somebody Changed The Lock
TTITLE3=Hound Dog Taylor and The Houserockers - Take Five
TTITLE4=Son Seals - Cotton Pickin' Blues
TTITLE5=Carey Bell - Let Me Stir In Your Pot
TTITLE6=Magic Slim and The Tear Drops - Mama, Talk To Your Daughter
TTITLE7=Lonnie Brooks - Cold Lonely Nights
TTITLE8=Pinetop Perkins - Take It Easy Baby
TTITLE9=Lil' Ed and The Blues Imperials - My Mind Is Gone
TTITLE10=James Cotton - 23 Hours Too Long
TTITLE11=Fenton Robinson - I Hear Some Blues Downstairs
EXTD=
EXTT0=
EXTT1=
EXTT2=
EXTT3=
EXTT4=
EXTT5=
EXTT6=
EXTT7=
EXTT8=
EXTT9=
EXTT10=
EXTT11=
PLAYORDER=
